<svg width="96" height="76" viewBox="0 0 96 76" fill="none" xmlns="http://www.w3.org/2000/svg">
<path d="M66.5333 26.1333C72.0145 26.1333 77.2711 28.3107 81.1469 32.1865C85.0226 36.0622 87.2 41.3189 87.2 46.8L87.2 63.3333C87.2 64.4296 86.7645 65.4809 85.9894 66.256C85.2142 67.0312 84.1629 67.4667 83.0667 67.4667L78.9333 67.4667C77.8371 67.4667 76.7858 67.9021 76.0106 68.6773C75.2355 69.4524 74.8 70.5038 74.8 71.6C74.8 72.6962 75.2355 73.7476 76.0106 74.5227C76.7858 75.2979 77.8371 75.7333 78.9333 75.7333L83.0667 75.7333C86.3554 75.7333 89.5093 74.4269 91.8348 72.1015C94.1602 69.776 95.4667 66.622 95.4667 63.3333L95.4667 46.8C95.4614 42.1304 94.3227 37.5319 92.1484 33.3994C89.9742 29.2669 86.8294 25.7239 82.984 23.0747C79.2895 19.8175 76.2933 15.8455 74.1763 11.3984C72.0594 6.95125 70.8654 2.12128 70.6667 -2.8C70.6667 -10.4736 67.6183 -17.8329 62.1923 -23.2589C56.7662 -28.685 49.4069 -31.7333 41.7333 -31.7333C34.0597 -31.7333 26.7004 -28.685 21.2744 -23.2589C15.8483 -17.8329 12.8 -10.4736 12.8 -2.8V1.912C8.90369 2.91803 5.50803 5.31055 3.24952 8.64111C0.99102 11.9717 0.0247345 16.0116 0.531784 20.0036C1.03884 23.9956 2.98443 27.6657 6.00385 30.3259C9.02328 32.986 12.9092 34.4537 16.9333 34.4537C20.9575 34.4537 24.8434 32.986 27.8628 30.3259C30.8823 27.6657 32.8278 23.9956 33.3349 20.0036C33.842 16.0116 32.8757 11.9717 30.6172 8.64111C28.3587 5.31055 24.963 2.91803 21.0667 1.912V-2.8C21.0667 -8.28114 23.244 -13.5378 27.1198 -17.4135C30.9956 -21.2893 36.2522 -23.4667 41.7333 -23.4667C47.2145 -23.4667 52.4711 -21.2893 56.3469 -17.4135C60.2226 -13.5378 62.4 -8.28114 62.4 -2.8C62.1908 2.12738 60.984 6.96107 58.8526 11.4085C56.7212 15.856 53.7096 19.8248 50 23.0747C46.1699 25.7331 43.0412 29.2801 40.8816 33.4121C38.7221 37.544 37.5961 42.1378 37.6 46.8L37.6 63.3333C37.6 66.622 38.9064 69.776 41.2319 72.1015C43.5573 74.4269 46.7113 75.7333 50 75.7333H54.1333C55.2296 75.7333 56.2809 75.2979 57.056 74.5227C57.8312 73.7476 58.2667 72.6962 58.2667 71.6C58.2667 70.5038 57.8312 69.4524 57.056 68.6773C56.2809 67.9021 55.2296 67.4667 54.1333 67.4667H50C48.9038 67.4667 47.8525 67.0312 47.0773 66.256C46.3022 65.4809 45.8667 64.4296 45.8667 63.3333L45.8667 46.8C45.8667 44.086 46.4012 41.3986 47.4398 38.8912C48.4784 36.3838 50.0007 34.1055 51.9198 32.1865C53.8389 30.2674 56.1172 28.7451 58.6246 27.7065C61.1319 26.6679 63.8194 26.1333 66.5333 26.1333ZM16.9333 9.60001C19.1258 9.60001 21.2285 10.471 22.7788 12.0213C24.3291 13.5716 25.2 15.6742 25.2 17.8667C25.2 20.0591 24.3291 22.1618 22.7788 23.7121C21.2285 25.2624 19.1258 26.1333 16.9333 26.1333C14.7409 26.1333 12.6382 25.2624 11.0879 23.7121C9.53763 22.1618 8.66668 20.0591 8.66668 17.8667C8.66668 15.6742 9.53763 13.5716 11.0879 12.0213C12.6382 10.471 14.7409 9.60001 16.9333 9.60001Z" fill="black" fill-opacity="0.05"/>
</svg>
