<svg width="95" height="69" viewBox="0 0 95 69" fill="none" xmlns="http://www.w3.org/2000/svg">
<path d="M29.1 49.4C23.6631 49.4 18.4488 47.2402 14.6043 43.3957C10.7598 39.5512 8.59999 34.3369 8.59999 28.9V12.5C8.59999 11.4126 9.03196 10.3698 9.80086 9.60087C10.5698 8.83198 11.6126 8.40001 12.7 8.40001H16.8C17.8874 8.40001 18.9302 7.96805 19.6991 7.19915C20.468 6.43025 20.9 5.3874 20.9 4.30001C20.9 3.21262 20.468 2.16977 19.6991 1.40087C18.9302 0.631975 17.8874 0.200012 16.8 0.200012H12.7C9.43783 0.200012 6.30928 1.4959 4.00258 3.8026C1.69588 6.1093 0.399994 9.23785 0.399994 12.5V28.9C0.405264 33.5319 1.53476 38.0934 3.69147 42.1925C5.84819 46.2917 8.96766 49.8062 12.782 52.434C16.4467 55.6649 19.4187 59.6049 21.5186 64.0162C23.6185 68.4274 24.8028 73.2184 25 78.1C25 85.7117 28.0237 93.0117 33.406 98.394C38.7883 103.776 46.0883 106.8 53.7 106.8C61.3117 106.8 68.6117 103.776 73.994 98.394C79.3763 93.0117 82.4 85.7117 82.4 78.1V73.426C86.2649 72.4281 89.6332 70.0549 91.8735 66.7512C94.1138 63.4475 95.0722 59.4401 94.5693 55.4803C94.0663 51.5205 92.1364 47.88 89.1413 45.2413C86.1463 42.6026 82.2916 41.1468 78.3 41.1468C74.3083 41.1468 70.4537 42.6026 67.4586 45.2413C64.4636 47.88 62.5337 51.5205 62.0307 55.4803C61.5277 59.4401 62.4862 63.4475 64.7265 66.7512C66.9668 70.0549 70.3351 72.4281 74.2 73.426V78.1C74.2 83.5369 72.0402 88.7512 68.1957 92.5957C64.3512 96.4402 59.1369 98.6 53.7 98.6C48.2631 98.6 43.0488 96.4402 39.2043 92.5957C35.3598 88.7512 33.2 83.5369 33.2 78.1C33.4075 73.2124 34.6046 68.4177 36.7188 64.0061C38.833 59.5945 41.8203 55.6577 45.5 52.434C49.2992 49.797 52.4027 46.2786 54.5448 42.18C56.687 38.0814 57.8039 33.5247 57.8 28.9V12.5C57.8 9.23785 56.5041 6.1093 54.1974 3.8026C51.8907 1.4959 48.7622 0.200012 45.5 0.200012H41.4C40.3126 0.200012 39.2698 0.631975 38.5009 1.40087C37.732 2.16977 37.3 3.21262 37.3 4.30001C37.3 5.3874 37.732 6.43025 38.5009 7.19915C39.2698 7.96805 40.3126 8.40001 41.4 8.40001H45.5C46.5874 8.40001 47.6302 8.83198 48.3991 9.60087C49.168 10.3698 49.6 11.4126 49.6 12.5V28.9C49.6 31.5921 49.0697 34.2578 48.0395 36.745C47.0093 39.2322 45.4993 41.4921 43.5957 43.3957C41.6921 45.2993 39.4322 46.8093 36.945 47.8395C34.4578 48.8698 31.7921 49.4 29.1 49.4ZM78.3 65.8C76.1252 65.8 74.0395 64.9361 72.5017 63.3983C70.9639 61.8605 70.1 59.7748 70.1 57.6C70.1 55.4252 70.9639 53.3395 72.5017 51.8017C74.0395 50.2639 76.1252 49.4 78.3 49.4C80.4748 49.4 82.5605 50.2639 84.0983 51.8017C85.6361 53.3395 86.5 55.4252 86.5 57.6C86.5 59.7748 85.6361 61.8605 84.0983 63.3983C82.5605 64.9361 80.4748 65.8 78.3 65.8Z" fill="black" fill-opacity="0.1"/>
</svg>
